<?xml version="1.0" encoding="UTF-8"?><svg width="500px" height="500px" viewBox="0 0 500 500" version="1.1" xmlns="http://www.w3.org/2000/svg" xmlns:xlink="http://www.w3.org/1999/xlink">        <title>Logo</title>    <desc>Created with Sketch.</desc>    <defs></defs>    <g id="Page-1" stroke="none" stroke-width="1" fill="none" fill-rule="evenodd">        <g id="Logo">            <circle id="Oval" fill="#EF5350" cx="250" cy="250" r="250"></circle>            <rect id="Rectangle-2" fill="#000000" x="145" y="311" width="212" height="135"></rect>            <g id="Final-Logo50x50" transform="translate(90.000000, 57.000000)">                <path d="M160.543478,433.543478 C248.909038,433.543478 320.543478,361.909038 320.543478,273.543478 C320.543478,185.177918 248.909038,113.543478 160.543478,113.543478 C72.177918,113.543478 0.543478,185.177918 0.543478,273.543478 C0.543478,361.909038 72.177918,433.543478 160.543478,433.543478 Z M251.229335,267.85986 C249.928347,268.565247 247.6266,269.77448 246.825992,270.177558 C245.124701,270.983714 243.523486,271.78987 241.822193,272.394487 C240.120902,273.099873 238.319535,273.80526 236.71832,274.309107 C234.816876,274.913724 231.013988,276.122958 229.612926,276.526036 C216.803201,279.851429 207.596211,281.262201 199.389982,282.471435 C184.078358,284.688364 169.967647,284.990672 162.762177,285.091442 L157.658302,285.091442 C150.452832,284.990672 136.342121,284.688364 121.030498,282.471435 C112.824268,281.262201 103.617279,279.851429 90.8075548,276.526036 C89.4064911,276.122958 85.6036043,274.913724 83.7021608,274.309107 C82.1009453,273.80526 80.2995779,273.099873 78.5982864,272.394487 C76.8969949,271.78987 75.2957793,270.983714 73.5944879,270.177558 C72.7938801,269.77448 70.4921328,268.565247 69.1911453,267.85986 C68.5906894,267.557552 66.389018,266.247549 65.2881823,267.759091 C63.9871948,269.572942 67.4898538,271.689101 67.8901576,271.991409 C68.9909933,272.797565 75.8962353,276.526036 86.7044399,279.64989 C93.209378,281.56451 100.915228,283.37836 108.921306,284.789133 C126.834905,287.812218 142.446756,289.021451 157.658302,289.122221 L160.160202,289.122221 L162.662101,289.122221 C177.873648,289.021451 193.485501,287.912987 211.399098,284.789133 C219.405176,283.37836 227.211102,281.56451 233.615965,279.64989 C244.424168,276.526036 251.329411,272.797565 252.430246,271.991409 C252.830551,271.689101 256.33321,269.472172 255.132297,267.759091 C254.031462,266.146779 251.729715,267.557552 251.229335,267.85986 Z" id="Combined-Shape" fill="#EF5350"></path>                <path d="M58.2137287,31.0459668 C70,23.9058943 70.935365,23.9058943 70.935365,23.9058943 C70.935365,23.9058943 114.435153,-1.03261979 163.577603,0.312611263 C212.822647,1.65784231 248.42271,22.3537046 248.42271,22.3537046 C248.42271,22.3537046 269.249259,34.2538254 280.124207,52.9835808 C280.124207,52.9835808 285.972056,59.9166947 287.510963,83.613457 C289.049871,107.20674 293.666594,178.503986 293.666594,178.503986 C293.666594,178.503986 297.951389,229.694915 296.654404,230.131583 C294.795609,230.757401 292.340178,229.735962 290.383591,227.553179 C283.612397,219.89571 272.327075,211.927803 254.065371,201.476393 C235.803667,191.024982 196.407632,180.677051 153.728595,181.918803 C111.049557,183.160555 85.4010965,193.611965 63.0356392,204.477293 C40.6701819,215.342621 25.4485254,233.21321 23.9473858,230.190125 C22.4462463,227.167041 31.6419239,116.416399 31.6419239,116.416399 L34.0015823,73.5759638 C34.0015823,73.5759638 37.5851975,43.5426423 58.2137287,31.0459668 Z" id="Shape" fill="#F0B200"></path>                <path d="M41.9570203,75.0729657 C41.9570203,75.0729657 45.4117109,47.3804208 64.6044362,35.6901424 C83.7971616,23.9998639 76.503926,29.0784275 76.503926,29.0784275 C76.503926,29.0784275 117.192504,5.98533651 163.159081,7.23102192 C209.221622,8.4767073 243.575873,26.6014978 243.575873,26.6014978 C243.575873,26.6014978 262.443631,36.4444904 272.615775,53.7882641 C274.993783,53.7882641 277.643688,62.4244677 279.083142,84.3676953 C280.522596,106.215101 286.167729,174.186801 286.167729,174.186801 L290.039716,222.734598 C290.039716,222.734598 288.103723,224.651037 281.770123,217.656034 C275.436524,210.565209 264.880525,203.186919 247.799,193.508901 C230.717474,183.830884 193.867441,174.248689 153.946573,175.398552 C114.025704,176.548415 90.0347973,186.226433 69.1147267,196.287738 C48.1946561,206.349043 32.5525849,222.734598 32.5525849,222.734598 L39.7498569,114.743255 L41.9570203,75.0729657 L41.9570203,75.0729657 Z" id="svg_6" fill="#000000"></path>                <g id="Group" transform="translate(24.447770, 2.283170)">                    <rect id="Rectangle" fill="#000000" x="23" y="91" width="229" height="158"></rect>                    <path d="M13.41018,229.444414 C13.41018,229.444414 6.10463417,277.914534 44.6338827,307.439992 C44.6338827,307.439992 74.9569016,332.330054 79.9607001,348.150863 L82.7628273,371.529383 C82.7628273,371.529383 85.7651064,392.187126 99.1752863,385.032493 C99.1752863,385.032493 106.180604,378.986324 106.981212,374.451697 C107.78182,369.917071 111.784859,359.033967 111.784859,359.033967 C111.784859,359.033967 116.888733,347.848554 123.293595,353.793954 L125.995646,364.677058 L127.89709,374.250159 L130.599141,380.800175 C130.599141,380.800175 133.501344,384.427876 134.1018,384.327107 C134.702256,384.226337 140.006282,385.838649 140.006282,385.838649 L146.51122,385.334801 L152.415702,377.474782 L154.517298,367.901681 C154.517298,367.901681 155.117754,361.956282 155.317906,361.351665 C155.518058,360.747048 157.519577,355.910113 157.519577,355.910113 L160.42178,352.68549 L166.62649,352.987798 L169.828921,359.840123 L172.8312,371.831691 L174.232264,377.575551 C174.232264,377.575551 175.933555,380.296327 176.333859,380.800175 C176.634087,381.304022 178.535531,383.72249 179.03591,384.327107 C179.53629,384.830954 182.338417,385.838649 182.338417,385.838649 L186.141304,386.544035 C186.141304,386.544035 189.043507,385.939418 189.844115,385.334801 C190.644723,384.730185 192.846394,382.110178 192.846394,382.110178 C192.846394,382.110178 195.248218,377.575551 195.348294,376.164779 C195.548446,374.754006 196.349053,370.219379 196.349053,369.715532 C196.349053,369.211684 196.549205,366.390139 196.349053,364.878597 C196.148901,363.467824 196.949509,361.150126 196.449129,359.739353 C195.948749,358.32858 196.749357,354.49934 196.649281,353.693184 C196.549205,352.887028 197.149661,350.770869 197.449889,349.360097 C197.750117,347.949324 198.050345,346.84086 198.550725,345.833165 C199.051104,344.82547 200.65232,341.197769 200.752396,340.693921 C200.952548,340.190074 202.15346,337.670837 202.653839,337.368528 C203.154219,337.06622 205.155739,334.647752 205.155739,334.647752 L237.580353,303.106905 C237.580353,303.106905 252.691824,283.356086 255.393876,273.279138 C258.095927,263.20219 265.101245,242.846755 261.598586,225.111326 C261.698662,225.111326 195.648522,185.408151 158.320185,188.028157 C158.320185,188.028157 80.4610799,173.315813 13.41018,229.444414 Z M103.178325,211.003599 C108.382276,211.003599 112.285238,215.336687 112.285238,221.785933 C112.285238,228.23518 108.482352,233.979041 103.278401,233.979041 C98.0744507,233.979041 94.4717158,228.23518 94.4717158,221.785933 C94.5717917,215.336687 97.9743747,211.003599 103.178325,211.003599 L103.178325,211.003599 Z M170.129149,210.70129 C175.3331,210.70129 179.236062,215.034378 179.236062,221.483625 C179.236062,227.932872 175.433176,233.676732 170.229225,233.676732 C165.025275,233.676732 161.42254,227.932872 161.42254,221.483625 C161.42254,215.034378 164.825123,210.70129 170.129149,210.70129 Z M211.760753,262.295265 C198.550725,266.930661 189.443811,269.752206 176.834239,271.465288 C144.509701,275.999914 111.884935,275.496067 79.8606241,269.248359 C71.9546225,267.736817 64.5490007,265.11681 55.9424673,261.589878 C53.440568,260.582184 50.3382129,258.969872 47.7362377,257.962177 C43.8332749,256.349865 36.2275012,254.233706 34.5262097,261.38834 C33.7256019,264.512193 34.5262097,267.837586 36.4276531,270.356823 C38.9295524,273.682216 44.5338067,278.619921 54.9417076,282.6507 C74.3564458,290.107642 99.8758181,296.25458 135.302712,296.25458 C171.730365,296.25458 195.248218,290.712259 215.56364,283.154547 C225.271009,279.526846 231.675871,273.883755 234.17777,270.558362 C236.079213,268.039125 236.879821,264.915271 236.279365,261.791417 C234.878302,254.636784 227.47268,256.349865 223.369565,257.962177 C220.467362,259.070641 214.763032,261.28757 211.760753,262.295265 Z" id="Combined-Shape" fill="#FFFFFF"></path>                    <path d="M48.3870243,23.7434261 C48.3870243,23.7434261 90.8192359,-0.542018836 138.755625,0.767984417 C186.792091,2.07798767 221.518453,22.231884 221.518453,22.231884 C221.518453,22.231884 241.833875,33.8203743 252.441927,52.0596504 C252.441927,52.0596504 258.146258,58.8112056 259.647397,81.8874169 C261.148537,104.862859 265.651955,174.293031 265.651955,174.293031 L269.054538,225.945547 C265.442463,221.28328 244.836154,206.841574 227.022631,196.663855 C209.209108,186.486139 170.779936,176.40919 129.148332,177.618425 C87.5167284,178.827657 62.4977361,189.005375 40.6811746,199.58617 C18.8646131,210.166966 2.55223,226.449395 2.55223,226.449395 L10.0579278,113.831342 L12.3596751,72.1127771 C12.3596751,72.1127771 15.96241,42.990397 35.977604,30.6965204 C55.992798,18.4026436 48.3870243,23.7434261 48.3870243,23.7434261 Z M13.4610848,200.593762 C13.7612582,199.405815 11.4800345,199.242003 11.3241487,200.503971 C10.544719,206.813808 10.3814099,213.10423 10.2444297,219.49203 C10.2065021,220.730639 12.5530261,220.676336 12.4729953,219.461086 C12.4003879,213.217381 12.7996136,206.880242 13.4610848,200.593762 Z M15.2653593,173.569881 C15.5862195,172.387353 13.3082022,172.183754 13.1303157,173.442809 C12.2408829,179.738082 11.9678157,186.024696 11.7193738,192.409133 C11.6598353,193.646891 14.0069497,193.633549 13.9481401,192.417086 C13.9845115,186.173066 14.4942746,179.843859 15.2653593,173.569881 Z M16.8653653,146.569881 C17.1862256,145.387353 14.9082083,145.183754 14.7303218,146.442809 C13.8408889,152.738082 13.5678217,159.024696 13.3193799,165.409133 C13.2598414,166.646891 15.6069558,166.633549 15.5481462,165.417086 C15.5845175,159.173066 16.0942807,152.843859 16.8653653,146.569881 Z M18.7653274,119.569881 C19.0861877,118.387353 16.8081704,118.183754 16.630284,119.442809 C15.7408511,125.738082 15.4677838,132.024696 15.219342,138.409133 C15.1598036,139.646891 17.5069179,139.633549 17.4481083,138.417086 C17.4844796,132.173066 17.9942428,125.843859 18.7653274,119.569881 Z M20.0226022,92.4843359 C20.3227756,91.296388 18.041552,91.1325768 17.8856662,92.3945451 C17.1062364,98.7043822 16.9429273,104.994804 16.8059471,111.382604 C16.7680196,112.621213 19.1145436,112.56691 19.0345128,111.35166 C18.9619053,105.107955 19.361131,98.7708155 20.0226022,92.4843359 Z M24.1024784,64.2718319 C24.553495,63.1277674 22.3102425,62.7004645 21.9929095,63.9347302 C20.4062445,70.1060564 19.4336466,76.3296165 18.4746363,82.6528691 C18.2773992,83.8776434 20.6135725,84.0960711 20.6907135,82.8807886 C21.4231196,76.6762108 22.6359092,70.4336677 24.1024784,64.2718319 Z M27.8977101,56.4544831 C27.3187341,57.474505 25.7280534,56.5539016 26.3070293,55.5338797 C29.1769415,50.723771 33.4366828,44.8173156 36.9509116,40.4143524 C37.8057002,39.6136529 39.8077047,41.3433612 38.4001722,42.0350465 C35.2888551,45.9095349 32.5219708,49.7329653 27.8977101,56.4544831 Z M60.0915814,27.6119012 C61.2268683,27.1709402 60.2169479,25.3758908 59.0927798,25.9660294 C53.4719411,28.9167206 48.176623,32.3165844 42.8138236,35.7906266 C41.7682557,36.4557642 42.9917379,38.1774565 43.9587053,37.4373201 C49.0968235,33.8874579 54.549342,30.637592 60.0915814,27.6119012 Z M86.8120962,16.9399438 C88.0116162,16.7278212 87.4903661,14.7405005 86.2642927,15.1032485 C80.1339233,16.9169888 74.2038587,19.2425439 68.1905255,21.628427 C67.0211662,22.0814724 67.7656667,24.0384343 68.8783118,23.4950916 C74.6949481,20.9889418 80.7384415,18.8439815 86.8120962,16.9399438 Z M115.384912,8.8404538 L114.880227,8.91425959 L114.375542,8.98806537 L113.870857,9.06187114 L113.366172,9.13567692 L112.861489,9.20948282 L112.356804,9.28328859 L111.852119,9.35709434 L111.347433,9.43090014 L110.842748,9.50470594 L110.338063,9.57851174 L109.833378,9.65231744 L109.328694,9.7261233 L108.824009,9.7999291 L108.319324,9.8737349 L107.814639,9.94754061 L107.309954,10.0213464 L106.805269,10.0951522 L106.300584,10.168958 L105.7959,10.2427639 L105.291215,10.3165696 L104.78653,10.3903754 L104.281845,10.4641812 L103.777159,10.537987 L103.272474,10.6117927 L102.76779,10.6855985 L102.263105,10.7594043 L101.75842,10.8332101 L101.253735,10.9070158 L100.74905,10.9808216 L100.244365,11.0546274 L99.73968,11.1284332 L99.2349958,11.2022391 L98.7303107,11.2760449 L98.2256257,11.3498506 L97.7209407,11.4236564 L97.3156749,11.5044143 C96.0998762,11.7466877 96.3609002,13.7286826 97.5766989,13.4864091 L97.9819655,13.4056513 L98.4866505,13.3318455 L98.9913356,13.2580397 L99.4960198,13.1842339 L100.000705,13.1104282 L100.50539,13.0366224 L101.010075,12.9628166 L101.51476,12.8890108 L102.019445,12.815205 L102.52413,12.7413992 L103.028814,12.6675935 L103.533499,12.5937877 L104.038184,12.5199819 L104.542869,12.4461761 L105.047554,12.3723703 L105.552239,12.2985646 L106.056924,12.2247587 L106.561609,12.1509529 L107.066294,12.0771471 L107.570979,12.0033413 L108.075664,11.9295356 L108.580349,11.8557298 L109.085034,11.781924 L109.589717,11.7081181 L110.094402,11.6343123 L110.599087,11.5605065 L111.103772,11.4867008 L111.608457,11.412895 L112.113143,11.3390892 L112.617828,11.2652834 L113.122512,11.1914776 L113.627197,11.1176719 L114.131882,11.0438661 L114.636567,10.9700603 L115.141252,10.8962545 L115.645937,10.8224487 L116.051203,10.7416909 L116.456469,10.6609331 L116.861735,10.5801752 C118.16177,10.5619857 118.000163,8.58694281 116.799548,8.6120844 L116.394281,8.69284219 L115.889597,8.76664803 L115.384912,8.8404538 Z M145.779261,9.0475228 C146.955334,9.19930236 146.893794,7.14311999 145.66014,7.12764582 C139.491872,7.05027393 133.401699,7.52199103 127.220026,8.02681728 C126.02029,8.11453907 126.298746,10.2076989 127.464563,10.0167813 C133.486901,9.33867227 139.644911,9.07334714 145.779261,9.0475228 Z M173.539052,12.7669924 C174.664557,13.1403887 174.996485,11.1102417 173.788449,10.8596596 C167.748274,9.60674829 161.679986,8.90773868 155.515562,8.22377111 C154.321131,8.08096082 154.195078,10.1887954 155.375904,10.2238339 C161.416983,10.7072997 167.51248,11.6218531 173.539052,12.7669924 Z M201.293271,21.5345193 C202.368992,22.1165712 203.034475,20.1796575 201.855435,19.702895 C195.960237,17.3190827 189.946529,15.4756188 183.833302,13.6286795 C182.650465,13.2606817 182.180222,15.3133107 183.366859,15.5725437 C189.388162,17.1984782 195.394274,19.2594715 201.293271,21.5345193 Z M225.354844,35.511599 C226.349798,36.0878299 227.414542,34.5722001 226.436723,33.8987923 C221.388533,30.3033033 216.095578,26.9652508 210.654536,23.9016816 C209.659581,23.3254508 208.691519,24.8581281 209.766019,25.5485836 C215.11038,28.5951051 220.306655,31.9161103 225.354844,35.511599 Z M244.751806,55.0904002 C241.676535,49.8702235 238.148457,45.2666046 233.872924,40.6395226 C233.01315,39.7825699 231.665981,40.7583697 232.455922,41.7972419 C236.676136,46.1365026 239.197425,50.7300318 243.051224,55.5792597 C243.63448,56.5935249 245.270254,55.9919688 244.751806,55.0904002 Z M245.840482,64.1972999 C245.393401,63.040433 247.638538,62.6784832 247.951596,63.9216387 C249.51689,70.1374148 250.467825,76.387553 251.404822,82.7369603 C251.597797,83.9671345 249.260456,84.117565 249.187564,82.9003721 C248.476794,76.6761965 247.285691,70.4000955 245.840482,64.1972999 Z M250.641171,89.4631588 C250.299722,88.2864113 252.573839,88.0430863 252.773672,89.2988446 C253.772837,95.5776363 254.155579,101.858527 254.515407,108.237655 C254.596538,109.474186 252.249548,109.501809 252.287119,108.284505 C252.14178,102.04207 251.521634,95.7227246 250.641171,89.4631588 Z M252.74685,116.433935 C252.450528,115.247921 254.732587,115.077984 254.884359,116.338347 C255.643223,122.640162 255.785949,128.924275 255.902024,135.305747 C255.935899,136.543098 253.589246,136.495304 253.673268,135.280965 C253.766336,129.042877 253.387816,122.712739 252.74685,116.433935 Z M254.627493,143.019268 C254.310518,141.838605 256.589263,141.628867 256.763009,142.88639 C257.631739,149.174 257.884116,155.454665 258.111546,161.83314 C258.167011,163.069711 255.819881,163.062878 255.882697,161.847258 C255.866881,155.608495 255.377942,149.285929 254.627493,143.019268 Z M256.548376,169.187447 C256.227515,168.004919 258.505532,167.80132 258.683419,169.060375 C259.572852,175.355649 259.84592,181.642262 260.094361,188.026698 C260.1539,189.264457 257.806785,189.251115 257.865594,188.034652 C257.829223,181.790632 257.31946,175.461425 256.548376,169.187447 Z M258.804166,195.93848 C258.503993,194.750532 260.785217,194.586721 260.941103,195.848688 C261.720533,202.158526 261.883841,208.448948 262.020822,214.836748 C262.058749,216.075357 259.712226,216.021054 259.792256,214.805803 C259.864864,208.562099 259.465638,202.22496 258.804166,195.93848 Z" id="Combined-Shape" fill="#F7D917"></path>                    <path d="M154.232394,187.132092 C154.232394,187.132092 211.521859,190.492648 255.734381,226.618621 L271.205879,226.618621 C271.205879,226.618621 263.103135,214.856676 228.853998,195.008394 C203.322823,181.776206 169.903969,174.740043 129.946643,175.370147 C81.5827101,176.000251 49.6168492,191.017734 29.2749376,202.35961 C10.6973756,212.756329 1.66056421,224.728308 0,226.618621 L15.7828535,226.513603 L26.6803061,218.952353 C65.0808533,192.698012 111.784222,182.721363 154.232394,187.132092 Z" id="Shape" fill="#F0B200"></path>                    <path d="M134.60218,191.756628 C97.7742228,191.756628 61.2464937,202.740501 31.9242345,222.793628 L21.3161816,230.049031 C21.3161816,230.049031 20.7157258,230.1498 19.2145863,230.049031 C17.0129149,229.948261 12.3093443,229.847492 5.40410238,228.940567 C0.455012077,228.638258 2.75275635,226.88295 2.75275635,226.88295 L4.00437315,226.219791 C5.90581658,224.002862 17.3384034,214.793779 35.55223,204.71683 C57.0685636,192.826032 83.3171319,179.220678 129.55223,178.71683 L134.60218,178.71683 C171.029833,178.71683 200.833466,183.919106 225.55223,196.71683 C259.07768,215.963801 267.903372,226.32056 268.303676,226.723638 L269.104284,227.832102 C269.104284,227.832102 267.903372,228.436719 266.20208,228.638258 C257.395395,229.847492 253.192204,230.049031 251.390837,230.1498 C250.290001,229.948261 250.089849,229.948261 250.089849,229.948261 C208.658398,196.291255 153.816766,192.663553 153.316386,192.663553 C147.111676,192.058936 140.80689,191.756628 134.60218,191.756628 Z" id="Shape" fill="#898989"></path>                    <path d="M37.8287167,298.471509 L60.4458859,320.237717 C60.6460379,320.439256 69.1524953,329.2062 69.3526473,329.407739 C80.5611559,341.298538 83.0630552,352.58472 83.3632831,357.723964 C83.9637389,370.11861 84.4641187,379.087094 89.2677653,382.916334 C91.5695126,384.730185 96.873539,385.63711 100.57635,381.102483 C106.28068,374.04862 109.783339,360.646279 110.483871,358.227811 C111.384555,354.902418 113.386074,350.166253 119.390632,350.267022 C125.89557,350.367791 126.696178,356.41396 127.39671,359.840123 C127.39671,360.041662 128.597622,369.917071 128.597622,369.917071 C128.597622,369.917071 129.798533,382.714795 137.004003,384.125568 C137.004003,384.125568 141.907726,385.234032 145.51046,382.714795 C148.812968,381.001714 151.615095,374.552467 152.21555,367.700142 C153.316386,359.336275 153.916842,356.615499 154.116994,356.111652 C154.517298,355.103957 156.819045,349.158558 164.124591,350.468561 C170.729605,351.677795 171.930517,361.553204 171.930517,362.157821 C171.930517,362.157821 173.83196,376.064009 179.336138,381.80787 C180.937354,383.420181 183.439253,384.629415 185.340697,384.427876 C196.849433,383.72249 193.747078,364.27398 194.347534,355.607804 C194.94799,347.143168 197.249737,340.391613 205.656119,331.523898 C213.56212,323.260801 221.26797,316.005398 224.870705,312.579236 C236.379441,302.09921 249.989773,283.557625 254.092888,272.069905 C254.092888,271.969135 256.394635,266.527583 258.596307,256.249096 C260.297598,247.885229 261.298358,238.412898 261.098206,228.940567 C261.051,228.404116 260.913765,227.856646 260.691104,227.299055 C260.429102,226.642949 254.043299,227.399496 253.55223,226.71683 C248.267498,219.370192 213.55223,202.71683 213.55223,202.71683 C213.55223,202.71683 170.229224,186.112213 145.51046,186.71683 C117.989568,187.522986 94.8720196,187.431235 74.3564458,194.28356 C57.5206702,199.878702 44.55223,207.71683 26.55223,217.71683 C8.55223,227.71683 21.9118886,221.024286 18.55223,223.71683 L15.8120033,224.33595 C14.5110157,232.397508 14.3108637,268.946051 31.0235507,290.208411 C32.6247662,292.223801 37.6285647,298.26997 37.8287167,298.471509 Z M12.55223,227.71683 C12.588672,227.32303 10.1522868,227.870712 9.55223,227.71683 C8.36671328,227.41281 8.55223,226.675393 8.55223,226.666878 L11.55223,222.71683 C13.2837194,221.322039 14.8400807,219.996968 16.55223,218.71683 C35.126503,204.829232 54.105007,197.83597 73.2556101,191.469709 C82.9654719,188.241846 92.7124096,185.191217 103.55223,183.71683 C116.062315,182.015261 129.904319,182.119286 144.809929,181.687375 C163.714332,181.158613 182.971842,183.871471 200.55223,189.71683 C206.424703,191.669387 212.139595,195.622562 217.55223,197.71683 C244.272514,208.096086 264.000409,220.979778 264.801017,230.452109 C265.901853,243.451372 259.697142,269.953745 257.495471,274.085294 C253.892736,284.867629 241.38324,301.494593 234.277846,309.052304 C225.671313,318.222327 208.658398,331.523898 201.753156,342.91085 C201.753156,342.91085 197.950269,349.863944 197.950269,361.250895 C198.350573,372.234769 197.049585,378.381707 196.549205,379.994019 C195.848673,382.009409 192.646242,388.861733 185.140545,388.559425 C182.538569,388.458655 179.336138,388.055577 177.034391,385.939418 C170.429377,380.497866 168.227706,364.17321 168.227706,364.17321 C168.227706,364.072441 167.226946,354.096262 162.423299,354.096262 C158.220109,354.096262 157.819805,358.026272 157.519577,358.530119 C157.519577,358.530119 157.419501,358.731658 157.319425,359.134736 C157.219349,359.537814 156.819045,361.049356 155.718209,369.715532 C155.21783,375.157084 153.516538,378.583246 152.015399,381.505561 C150.914563,383.72249 145.810688,388.559425 139.405826,388.357886 C125.295115,387.854038 124.494507,372.133999 124.494507,372.03323 C124.494507,372.03323 123.493747,361.049356 123.493747,360.948587 C123.493747,360.948587 123.293595,354.297801 119.19048,353.995493 C115.087366,353.592415 113.886454,359.336275 113.886454,359.437045 C113.586226,360.34397 109.383035,376.769396 105.680224,381.908639 C103.578629,384.730185 100.776502,387.047883 97.3739189,387.954808 C90.7689049,389.869428 86.5657141,386.140957 86.5657141,386.140957 C86.5657141,386.140957 79.2601683,381.7071 79.7605482,359.235506 C78.9599404,340.89546 63.648317,328.400045 63.648317,328.400045 L37.2282609,302.703827 L29.4223352,293.936882 L28.6217274,293.130726 C9.84392471,267.627007 11.8086732,235.75187 12.55223,227.71683 Z" id="Shape" fill="#1F1A17"></path>                    <path d="M154.14489,189.481154 C154.14489,189.481154 209.944216,192.750658 253.00674,227.897828 L271,227.897828 C271,227.897828 260.183827,216.454564 226.825534,197.144055 C201.958443,184.270382 169.408836,177.424857 130.490828,178.03789 C83.3848747,178.650922 52.2504681,193.261519 32.4376639,204.296095 C14.3433172,214.411123 2.61737177,226.160905 1,228 L19.2965182,227.795656 L29.9105204,220.439272 C67.3122428,194.89627 112.800824,185.18993 154.14489,189.481154 Z M162.650462,183.737694 C156.158944,182.52498 150.008639,182.176065 143.446616,182.469507 C142.195884,182.583836 142.407127,184.5077 143.601509,184.309829 C149.603151,183.543519 156.313836,184.365303 162.221471,185.607201 C163.475319,185.85542 163.764991,183.958334 162.650462,183.737694 Z M191.598102,189.28296 C185.338536,187.178603 179.296645,185.977127 172.757644,185.354456 C171.503173,185.293604 171.44461,187.228145 172.654906,187.198425 C178.704791,187.27484 185.235798,189.022573 190.913101,191.074569 C192.120201,191.494874 192.671078,189.656565 191.598102,189.28296 Z M217.935197,200.977145 C218.991551,201.579796 219.894078,199.927608 218.837723,199.324958 C213.733642,196.556278 206.732042,193.048741 200.962356,192.258346 C199.781575,191.995212 199.35886,193.797028 200.539642,194.060161 C205.780084,195.48419 210.578212,196.980463 216.339798,200.143344 C216.878842,200.374495 217.396153,200.745994 217.935197,200.977145 Z M242.156483,214.232295 C243.105557,214.992776 244.255431,213.502116 243.306357,212.741635 C238.698232,209.208588 232.331533,204.648943 226.756527,202.965701 C225.631446,202.521093 224.93207,204.234598 226.057152,204.679206 C231.010308,206.905488 235.515293,209.133933 240.711161,213.159183 C241.207409,213.471814 241.660236,213.919665 242.156483,214.232295 Z M260.165434,224.391485 C252.55223,219.213768 255.55223,220.71683 249.55223,217.71683 C248.451394,217.112213 246.952367,218.70992 248.053202,219.213768 C253.55223,222.288577 253.983779,222.71683 258.76437,226.701489 C259.665054,227.608414 260.966041,225.197641 260.165434,224.391485 Z M133.318017,182.242598 C127.668699,181.941206 122.146497,182.263539 116.113311,183.113258 C114.95098,183.319588 114.734812,184.761163 115.976859,184.692907 C121.774177,183.744235 126.623002,184.142647 132.530828,183.704024 C133.619035,183.772861 134.285311,182.303787 133.318017,182.242598 Z M105.193371,184.024831 C98.6190549,184.6484 92.610828,186.008255 86.3838902,188.099068 C85.2131231,188.553717 85.9464719,190.344827 87.0400445,189.825406 C92.5979699,187.434504 99.2752087,186.374738 105.296305,185.940162 C106.569999,185.833158 106.325543,183.929718 105.193371,184.024831 Z M77.6928181,190.271785 C71.2692664,191.804253 65.5087664,193.987058 59.6334137,196.924146 C58.5373153,197.537309 59.5128016,199.208926 60.5234421,198.542363 C65.694529,195.401216 72.1592944,193.422472 78.061313,192.15415 C79.3077192,191.870924 78.8007339,190.020029 77.6928181,190.271785 Z M52.2567289,202.027329 C53.3973977,201.605491 52.7118818,199.852109 51.5712129,200.273948 C46.1694406,202.404228 38.9819698,205.513163 34.6678094,209.424943 C33.7072458,210.160335 34.8158007,211.642338 35.7763644,210.906945 C40.2357251,207.807882 44.4661139,205.094089 50.5924971,202.713518 C51.11606,202.449168 51.733166,202.29168 52.2567289,202.027329 Z M29.2767816,215.233 C30.3374168,214.637915 29.3860515,213.013359 28.3254162,213.608444 C23.3233979,216.55752 16.7107614,220.752548 13.0616526,225.29105 C12.2279559,226.167654 13.554699,227.457995 14.3883956,226.58139 C18.3080539,222.822884 22.0618289,219.480723 27.7403828,216.171084 C28.2161463,215.828085 28.8010181,215.575999 29.2767816,215.233 Z" id="Combined-Shape" fill="#FFFFFF"></path>                </g>            </g>        </g>    </g></svg>